<?xml version="1.0" encoding="utf-8"?><!-- Uploaded to: SVG Repo, www.svgrepo.com, Generator: SVG Repo Mixer Tools -->
<svg fill="#000000" width="800px" height="800px" viewBox="0 0 24 24" id="pillow-2" data-name="Flat Line" xmlns="http://www.w3.org/2000/svg" class="icon flat-line"><path id="secondary" d="M20.75,16a2,2,0,0,1-2.91,2.58,44.77,44.77,0,0,1-11.68,0A2,2,0,0,1,3.25,16,35.22,35.22,0,0,1,3.25,8,2,2,0,0,1,6.16,5.38a44.77,44.77,0,0,1,11.68,0A2,2,0,0,1,20.75,8,35.22,35.22,0,0,1,20.75,16Z" style="fill: rgb(44, 169, 188); stroke-width: 2;"></path><path id="primary" d="M16.1,15a9.34,9.34,0,0,1,0-6" style="fill: none; stroke: rgb(0, 0, 0); stroke-linecap: round; stroke-linejoin: round; stroke-width: 2;"></path><path id="primary-2" data-name="primary" d="M20.75,16a2,2,0,0,1-2.91,2.58,44.77,44.77,0,0,1-11.68,0A2,2,0,0,1,3.25,16,35.22,35.22,0,0,1,3.25,8,2,2,0,0,1,6.16,5.38a44.77,44.77,0,0,1,11.68,0A2,2,0,0,1,20.75,8,35.22,35.22,0,0,1,20.75,16Z" style="fill: none; stroke: rgb(0, 0, 0); stroke-linecap: round; stroke-linejoin: round; stroke-width: 2;"></path></svg>